<svg width="40" height="41" viewBox="0 0 40 41" fill="none" xmlns="http://www.w3.org/2000/svg">
<circle cx="20" cy="20.4194" r="20" fill="white"/>
<path d="M28.7691 24.0976L23.5365 24.1955C23.3601 24.1955 23.1837 24.2935 23.0661 24.4503C22.537 25.293 20.8908 27.6448 19.4209 29.291C19.1074 29.5849 18.5978 29.5065 18.3823 29.1342C18.3431 29.0558 18.2843 28.9774 18.2843 28.9578C17.9707 28.2327 17.0104 24.0388 16.5792 23.5096C16.0502 22.8825 11.5035 21.7458 10.7979 21.5107C10.2884 21.3343 10.1512 20.668 10.5432 20.2956C11.6994 19.1981 13.5612 17.6499 14.8939 16.768C15.0703 16.67 15.1878 16.474 15.1878 16.278L15.1095 11.3002C15.1095 10.9083 15.5014 10.6143 15.8737 10.7907C16.9908 11.261 18.9898 12.5153 20.2441 13.6127C20.3812 13.7695 20.5968 13.8283 20.7928 13.7695C21.6943 13.5148 24.2224 12.7896 26.6917 12.6525C27.0249 12.6329 27.2992 12.9072 27.2601 13.26C27.1425 14.4359 26.8093 16.964 26.2605 18.6298C26.2018 18.8062 26.2214 18.9825 26.3585 19.1393C26.8877 19.8252 28.142 21.5498 29.2394 23.2744C29.4354 23.6468 29.2002 24.0976 28.7691 24.0976Z" fill="white"/>
<path d="M22.8309 17.9635C22.8309 18.6102 22.3018 19.1589 21.6551 19.1589C21.0084 19.1589 20.4792 18.6298 20.4792 17.9635C20.4792 17.3167 21.0084 16.768 21.6551 16.768C22.3018 16.768 22.8309 17.3167 22.8309 17.9635ZM28.7691 24.0976L23.5365 24.1955C23.3601 24.1955 23.1837 24.2935 23.0661 24.4503C22.537 25.293 20.8908 27.6448 19.4209 29.291C19.1074 29.5849 18.5978 29.5065 18.3823 29.1342C18.3431 29.0558 18.2843 28.9774 18.2843 28.9578C17.9707 28.2327 17.0104 24.0388 16.5792 23.5096C16.0502 22.8825 11.5035 21.7458 10.7979 21.5107C10.2884 21.3343 10.1512 20.668 10.5432 20.2956C11.6994 19.1981 13.5612 17.6499 14.8939 16.768C15.0703 16.67 15.1878 16.474 15.1878 16.278L15.1095 11.3002C15.1095 10.9083 15.5014 10.6143 15.8737 10.7907C16.9908 11.261 18.9898 12.5153 20.2441 13.6127C20.3812 13.7695 20.5968 13.8283 20.7928 13.7695C21.6943 13.5148 24.2224 12.7896 26.6917 12.6525C27.0249 12.6329 27.2992 12.9072 27.2601 13.26C27.1425 14.4359 26.8093 16.964 26.2605 18.6298C26.2018 18.8062 26.2214 18.9825 26.3585 19.1393C26.8877 19.8252 28.142 21.5498 29.2394 23.2744C29.4354 23.6468 29.2002 24.0976 28.7691 24.0976ZM25.6922 14.3967C25.7315 14.2595 25.5943 14.1223 25.4375 14.1419C20.1461 14.6906 15.3054 18.5514 13.7376 19.9428C13.4828 20.1584 13.5612 20.57 13.8748 20.6876C13.8748 20.6876 17.2456 21.2363 18.0491 21.9222C18.637 22.4317 19.2054 25.489 19.2054 25.489C19.323 25.783 19.6954 25.8417 19.9109 25.6262C24.4771 20.9423 25.5158 15.6901 25.6922 14.3967Z" fill="url(#paint0_linear_3780_22896)"/>
<path d="M16.7357 27.1352C16.6965 26.9588 16.6377 26.7824 16.5789 26.5864L14.8934 28.3699C14.7758 28.5071 14.717 28.6835 14.717 28.8599C14.717 29.0558 14.7954 29.2323 14.9326 29.3498C15.0502 29.4674 15.2265 29.5262 15.4029 29.5262C15.5989 29.5262 15.7753 29.4478 15.9125 29.3106L17.0296 28.1347C16.9317 27.8603 16.8337 27.5271 16.7357 27.1352Z" fill="url(#paint1_linear_3780_22896)"/>
<path d="M15.815 24.1368C15.6778 24.0388 15.4034 23.9409 15.0898 23.8232L10.8959 28.0956C10.7587 28.2328 10.7 28.4091 10.7 28.5855C10.7 28.7619 10.7587 28.9579 10.8959 29.0755C11.0331 29.193 11.2095 29.2715 11.3859 29.2715C11.5623 29.2715 11.7386 29.2126 11.8954 29.0755L16.0501 24.8423C15.9717 24.5484 15.8934 24.2936 15.815 24.1368Z" fill="url(#paint2_linear_3780_22896)"/>
<path d="M12.0319 22.8633L10.6404 24.2744C10.5228 24.4116 10.4445 24.588 10.4445 24.7644C10.4445 24.9407 10.5033 25.1367 10.6404 25.2543C10.7776 25.3719 10.954 25.4503 11.1304 25.4503C11.3068 25.4503 11.5028 25.3719 11.6204 25.2543L13.5606 23.2945C13.0119 23.1573 12.4631 23.0005 12.0319 22.8633Z" fill="url(#paint3_linear_3780_22896)"/>
<path d="M16.7357 27.1352C16.6965 26.9588 16.6377 26.7824 16.5789 26.5864L14.8934 28.3699C14.7758 28.5071 14.717 28.6835 14.717 28.8599C14.717 29.0558 14.7954 29.2323 14.9326 29.3498C15.0502 29.4674 15.2265 29.5262 15.4029 29.5262C15.5989 29.5262 15.7753 29.4478 15.9125 29.3106L17.0296 28.1347C16.9317 27.8603 16.8337 27.5271 16.7357 27.1352Z" fill="url(#paint4_linear_3780_22896)" stroke="url(#paint5_linear_3780_22896)" stroke-width="1.17121"/>
<path d="M12.0319 22.8633L10.6404 24.2744C10.5228 24.4116 10.4445 24.588 10.4445 24.7644C10.4445 24.9407 10.5033 25.1367 10.6404 25.2543C10.7776 25.3719 10.954 25.4503 11.1304 25.4503C11.3068 25.4503 11.5028 25.3719 11.6204 25.2543L13.5606 23.2945C13.0119 23.1573 12.4631 23.0005 12.0319 22.8633Z" stroke="url(#paint6_linear_3780_22896)" stroke-width="1.17121"/>
<path d="M15.815 24.1368C15.6778 24.0388 15.4034 23.9409 15.0898 23.8232L10.8959 28.0956C10.7587 28.2328 10.7 28.4091 10.7 28.5855C10.7 28.7619 10.7587 28.9579 10.8959 29.0755C11.0331 29.193 11.2095 29.2715 11.3859 29.2715C11.5623 29.2715 11.7386 29.2126 11.8954 29.0755L16.0501 24.8423C15.9717 24.5484 15.8934 24.2936 15.815 24.1368Z" stroke="url(#paint7_linear_3780_22896)" stroke-opacity="0.5" stroke-width="1.17121"/>
<g filter="url(#filter0_ii_3780_22896)">
<path d="M28.7691 24.0976L23.5365 24.1955C23.3601 24.1955 23.1837 24.2935 23.0661 24.4503C22.537 25.293 20.8908 27.6448 19.4209 29.291C19.1074 29.5849 18.5978 29.5065 18.3823 29.1342C18.3431 29.0558 18.2843 28.9774 18.2843 28.9578C17.9707 28.2327 17.0104 24.0388 16.5792 23.5096C16.0502 22.8825 11.5035 21.7458 10.7979 21.5107C10.2884 21.3343 10.1512 20.668 10.5432 20.2956C11.6994 19.1981 13.5612 17.6499 14.8939 16.768C15.0703 16.67 15.1878 16.474 15.1878 16.2781L15.1095 11.3002C15.1095 10.9083 15.5014 10.6143 15.8737 10.7907C16.9908 11.261 18.9898 12.5153 20.2441 13.6127C20.3812 13.7695 20.5968 13.8283 20.7928 13.7695C21.6943 13.5148 24.2224 12.7896 26.6917 12.6524C27.0249 12.6329 27.2992 12.9072 27.2601 13.26C27.1425 14.4359 26.8093 16.964 26.2605 18.6298C26.2018 18.8062 26.2214 18.9825 26.3585 19.1393C26.8877 19.8252 28.142 21.5498 29.2394 23.2744C29.4354 23.6468 29.2002 24.0976 28.7691 24.0976Z" stroke="url(#paint8_linear_3780_22896)" stroke-width="1.17121"/>
</g>
<defs>
<filter id="filter0_ii_3780_22896" x="9.73145" y="10.1479" width="20.1603" height="20.1424" filterUnits="userSpaceOnUse" color-interpolation-filters="sRGB">
<feFlood flood-opacity="0" result="BackgroundImageFix"/>
<feBlend mode="normal" in="SourceGraphic" in2="BackgroundImageFix" result="shape"/>
<feColorMatrix in="SourceAlpha" type="matrix" values="0 0 0 0 0 0 0 0 0 0 0 0 0 0 0 0 0 0 127 0" result="hardAlpha"/>
<feOffset dy="0.234242"/>
<feGaussianBlur stdDeviation="0.117121"/>
<feComposite in2="hardAlpha" operator="arithmetic" k2="-1" k3="1"/>
<feColorMatrix type="matrix" values="0 0 0 0 1 0 0 0 0 1 0 0 0 0 1 0 0 0 0.8 0"/>
<feBlend mode="normal" in2="shape" result="effect1_innerShadow_3780_22896"/>
<feColorMatrix in="SourceAlpha" type="matrix" values="0 0 0 0 0 0 0 0 0 0 0 0 0 0 0 0 0 0 127 0" result="hardAlpha"/>
<feOffset dy="0.117121"/>
<feGaussianBlur stdDeviation="0.117121"/>
<feComposite in2="hardAlpha" operator="arithmetic" k2="-1" k3="1"/>
<feColorMatrix type="matrix" values="0 0 0 0 0.441667 0 0 0 0 0.441667 0 0 0 0 0.441667 0 0 0 0.4 0"/>
<feBlend mode="normal" in2="effect1_innerShadow_3780_22896" result="effect2_innerShadow_3780_22896"/>
</filter>
<linearGradient id="paint0_linear_3780_22896" x1="26.4715" y1="13.1537" x2="14.9204" y2="24.7047" gradientUnits="userSpaceOnUse">
<stop offset="0.1745" stop-color="#52BFCA"/>
<stop offset="0.9163" stop-color="#7238DF"/>
</linearGradient>
<linearGradient id="paint1_linear_3780_22896" x1="13.2037" y1="30.94" x2="17.7326" y2="26.4882" gradientUnits="userSpaceOnUse">
<stop offset="0.1875" stop-color="#25E2EA"/>
<stop offset="1" stop-color="#19A6D1"/>
</linearGradient>
<linearGradient id="paint2_linear_3780_22896" x1="7.16177" y1="32.6926" x2="17.2653" y2="22.761" gradientUnits="userSpaceOnUse">
<stop stop-color="#A443FD"/>
<stop offset="1" stop-color="#A959F3"/>
</linearGradient>
<linearGradient id="paint3_linear_3780_22896" x1="8.78572" y1="27.0642" x2="13.7935" y2="22.1417" gradientUnits="userSpaceOnUse">
<stop offset="0.3958" stop-color="#E55EC4"/>
<stop offset="1" stop-color="#8225D0"/>
</linearGradient>
<linearGradient id="paint4_linear_3780_22896" x1="13.2037" y1="30.94" x2="17.7326" y2="26.4882" gradientUnits="userSpaceOnUse">
<stop offset="0.1875" stop-color="#25E2EA"/>
<stop offset="1" stop-color="#19A6D1"/>
</linearGradient>
<linearGradient id="paint5_linear_3780_22896" x1="14.717" y1="29.6683" x2="16.4413" y2="27.8798" gradientUnits="userSpaceOnUse">
<stop stop-color="#E4FCFF"/>
<stop offset="0.0001" stop-color="#E4FCFF"/>
<stop offset="1" stop-color="#E4FCFF" stop-opacity="0"/>
</linearGradient>
<linearGradient id="paint6_linear_3780_22896" x1="10.4445" y1="25.3795" x2="12.7059" y2="23.0687" gradientUnits="userSpaceOnUse">
<stop stop-color="#FFF5FE"/>
<stop offset="0.769332" stop-color="#FFF5FE" stop-opacity="0"/>
</linearGradient>
<linearGradient id="paint7_linear_3780_22896" x1="10.9181" y1="29.0986" x2="15.777" y2="24.1289" gradientUnits="userSpaceOnUse">
<stop stop-color="#F6EDFE"/>
<stop offset="0.850896" stop-color="#A851F8" stop-opacity="0"/>
</linearGradient>
<linearGradient id="paint8_linear_3780_22896" x1="27.3784" y1="12.5274" x2="14.8116" y2="25.7115" gradientUnits="userSpaceOnUse">
<stop offset="0.00924772" stop-color="#2D9FAB"/>
<stop offset="0.0885417" stop-color="#2D9FAB" stop-opacity="0.823892"/>
<stop offset="0.171875" stop-color="#2D9FAB" stop-opacity="0.8"/>
<stop offset="0.302083" stop-color="#2D9FAB" stop-opacity="0.8"/>
<stop offset="1" stop-color="white" stop-opacity="0.5"/>
</linearGradient>
</defs>
</svg>
