<svg width="25" height="25" viewBox="0 0 25 25" fill="none" xmlns="http://www.w3.org/2000/svg">
<path fill-rule="evenodd" clip-rule="evenodd" d="M20.4154 4.66748L19.3128 5.20827C21.4623 6.90555 22.5132 9.0979 22.7085 11.7508C22.5452 16.8714 20.0744 20.1625 15.8299 21.5739C10.9261 23.0186 7.81875 21.8497 4.81191 18.8541L4.6225 20.0056L5.84499 21.2511C10.0974 25.5841 17.1476 25.7264 21.5791 21.5685C26.0106 17.4104 26.1561 10.5171 21.9035 6.18385L20.4154 4.66748Z" fill="#FEEF7C"/>
<path fill-rule="evenodd" clip-rule="evenodd" d="M4.0147 19.3478L4.75346 18.7169C1.68407 14.4639 1.55546 8.23753 5.75604 4.80972C8.86976 2.26886 15.048 0.951855 19.9909 5.20716L20.3598 4.57259L19.1553 3.34508C14.9028 -0.987915 7.8527 -1.13019 3.42102 3.0279C-1.01045 7.18577 -1.15575 14.0794 3.09663 18.4124L4.0147 19.3478Z" fill="#5CD3CB"/>
<path d="M1.35986 12.3315C1.35986 18.3519 6.35209 23.2332 12.5093 23.2332C18.6676 23.2332 23.6596 18.3519 23.6596 12.3315C23.6596 6.31001 18.6676 1.42871 12.5093 1.42871C6.35209 1.42871 1.35986 6.31001 1.35986 12.3315ZM9.12036 14.3032C9.23756 13.9405 9.10719 13.5452 8.79554 13.3176C7.9703 12.715 6.34332 11.5269 5.2501 10.7286C5.0923 10.6134 5.02777 10.4123 5.08988 10.2295C5.15199 10.0466 5.3267 9.92344 5.52379 9.92344H9.76102C10.1554 9.92344 10.5053 9.67622 10.6293 9.31033C10.9633 8.32381 11.6272 6.36323 12.0675 5.06361C12.1294 4.88098 12.3039 4.75737 12.5008 4.75716C12.6976 4.75694 12.8728 4.87991 12.9351 5.06232C13.38 6.36301 14.0518 8.32682 14.3891 9.3129C14.514 9.67751 14.8632 9.92344 15.2565 9.92344C16.2589 9.92344 18.1898 9.92344 19.5045 9.92344C19.7009 9.92344 19.8756 10.0462 19.938 10.2286C20.0003 10.411 19.9366 10.6119 19.7795 10.7275C18.6896 11.5304 17.0617 12.7291 16.2382 13.3356C15.9283 13.5637 15.7995 13.9584 15.9165 14.3197C16.2349 15.303 16.8736 17.275 17.3051 18.607C17.3652 18.7931 17.295 18.9961 17.1315 19.1081C16.968 19.2201 16.7492 19.2156 16.5907 19.0967C15.4957 18.2748 13.896 17.0741 13.0582 16.4456C12.7288 16.1983 12.2705 16.199 11.942 16.4475C11.1123 17.0746 9.5343 18.2677 8.44854 19.0886C8.29052 19.2081 8.07126 19.2135 7.90731 19.1015C7.74336 18.9897 7.67269 18.7866 7.73283 18.6004C8.16432 17.2645 8.80212 15.2891 9.12036 14.3032Z" fill="black"/>
</svg>
